<?xml version="1.0" encoding="utf-8"?>
<!-- Generator: Adobe Illustrator 19.2.1, SVG Export Plug-In . SVG Version: 6.00 Build 0)  -->
<svg version="1.1" id="Capa_1" xmlns="http://www.w3.org/2000/svg" xmlns:xlink="http://www.w3.org/1999/xlink" x="0px" y="0px"
	 viewBox="0 0 512 512" style="enable-background:new 0 0 512 512;" xml:space="preserve">
<style type="text/css">
	.st0{fill:#231F20;}
</style>
<g>
	<path class="st0" d="M500.2,391.4c-27.5-12.1-58.3-13.2-86.2-4.4c2.4-15.8,3.2-31.8,2.5-48c22.2-20.1,40.2-43.7,53.6-70.5
		c2.8-5.5,2.8-12,0-17.5c-17.4-34.9-42.4-64.2-72.4-86.2c27.9-13.9,47.2-42.8,47.2-76.1c0-46.9-38.1-85-85-85s-85,38.1-85,85
		c0,11,2.1,21.5,5.9,31.1c-8.2-0.8-16.5-1.3-24.8-1.3s-16.6,0.4-24.8,1.3c3.8-9.6,5.9-20.1,5.9-31.1c0-46.9-38.1-85-85-85
		s-85,38.1-85,85c0,33.3,19.3,62.2,47.2,76.1c-30,22.1-55,51.3-72.4,86.2c-2.8,5.5-2.8,12,0,17.5c13.6,27.3,31.9,51.2,53.6,70.8
		c-0.7,16,0.2,32,2.5,47.7c-27.9-8.8-58.7-7.7-86.2,4.4C3,395.2-1.7,404.8,0.6,414.1c5.2,20.6,15.6,39.5,30.2,55h-0.5
		c-10.8,0-19.6,8.8-19.6,19.6c0,10.8,8.8,19.6,19.6,19.6h130.9c7.4,0,14.2-4.2,17.6-10.9c3.3-6.7,2.6-14.6-1.9-20.6
		c-13.4-17.8-23.7-37.3-30.8-57.9c-0.2-0.5-0.3-1-0.5-1.4c-5.4-15.9-8.8-32.3-10.3-49.1C171.1,389.4,212.5,401,256,401
		c42.6,0,84.3-11.5,120.7-32.8c-1.5,16.9-4.9,33.4-10.3,49.4c-0.2,0.4-0.3,0.9-0.5,1.3c-7.1,20.6-17.5,40.2-30.9,58
		c-4.5,5.9-5.2,13.9-1.9,20.6c3.3,6.7,10.1,10.9,17.6,10.9h123.7c10.8,0,19.6-8.8,19.6-19.6c0-8.8-5.8-16.3-13.8-18.7
		c15.1-15.7,25.8-34.9,31.1-55.9C513.7,404.8,509,395.2,500.2,391.4z M359.9,42.9c25.2,0,45.8,20.5,45.8,45.7s-20.5,45.8-45.8,45.8
		s-45.7-20.5-45.7-45.8S334.7,42.9,359.9,42.9z M152.1,42.9c25.2,0,45.8,20.5,45.8,45.7s-20.5,45.8-45.8,45.8s-45.7-20.5-45.7-45.8
		S126.9,42.9,152.1,42.9z M111.9,468.6c-18.7-2.1-35.9-10.2-49.6-23.4c-7.1-6.8-12.9-14.7-17.2-23.4c22.8-4.4,46.9,1,65.7,15.1
		c4.1,11,9,21.8,14.6,32.2h-10.7C113.8,468.9,112.9,468.7,111.9,468.6z M466.9,421.9c-4.3,8.7-10.1,16.6-17.2,23.4
		c-15.7,15.1-36.3,23.6-58,23.9c0,0-0.1,0-0.1,0h-4.9c5.6-10.4,10.5-21.2,14.6-32.2C420,422.9,444.1,417.5,466.9,421.9z
		 M387.4,206.7H124.6c35.7-31.2,81.9-49.1,131.4-49.1C305.5,157.7,351.7,175.5,387.4,206.7z M129.8,317c-1-1.1-2.2-2-3.4-2.8
		c-17.7-15.1-32.9-33.4-44.7-54.5c2.6-4.7,5.5-9.3,8.5-13.7h331.8c3,4.4,5.8,9,8.5,13.7c-12,21.3-27.6,40.1-46.6,55.9
		c-35.8,29.8-81.2,46.2-127.8,46.2C208.9,361.8,164.7,345.5,129.8,317z"/>
	<circle class="st0" cx="359.9" cy="88.6" r="19.7"/>
	<circle class="st0" cx="152.1" cy="88.6" r="19.7"/>
	<path class="st0" d="M256,424.2c-10.8,0-19.6,8.8-19.6,19.6v44.9c0,10.8,8.8,19.6,19.6,19.6c10.8,0,19.6-8.8,19.6-19.6v-44.9
		C275.6,433,266.8,424.2,256,424.2z"/>
</g>
</svg>
